<?xml version="1.0" encoding="utf-8"?>
<!-- Generator: Adobe Illustrator 24.1.0, SVG Export Plug-In . SVG Version: 6.00 Build 0)  -->
<svg version="1.1" id="Layer_1" focusable="false" xmlns="http://www.w3.org/2000/svg" xmlns:xlink="http://www.w3.org/1999/xlink"
	 x="0px" y="0px" viewBox="0 0 512 512" style="enable-background:new 0 0 512 512;" xml:space="preserve">
<style type="text/css">
	.st0{fill-rule:evenodd;clip-rule:evenodd;fill:#181616;}
</style>
<path class="st0" d="M256.5,22c-132,0-239,107-239,239c0,105.6,68.5,195.2,163.5,226.8c12,2.2,16.3-5.2,16.3-11.5
	c0-5.7-0.2-20.7-0.3-40.7c-66.5,14.4-80.5-32-80.5-32c-10.9-27.6-26.5-35-26.5-35c-21.7-14.8,1.6-14.5,1.6-14.5
	c24,1.7,36.6,24.6,36.6,24.6c21.3,36.5,55.9,26,69.6,19.9c2.2-15.4,8.3-26,15.2-32c-53.1-6-108.9-26.5-108.9-118.1
	c0-26.1,9.3-47.4,24.6-64.1c-2.5-6-10.7-30.3,2.3-63.3c0,0,20.1-6.4,65.7,24.5c19.1-5.3,39.5-8,59.8-8c20.3,0.1,40.7,2.7,59.8,8
	c45.6-30.9,65.7-24.5,65.7-24.5c13,32.9,4.8,57.2,2.4,63.3c15.3,16.7,24.6,38,24.6,64.1c0,91.8-55.9,112-109.1,117.9
	c8.6,7.4,16.2,22,16.2,44.3c0,32-0.3,57.7-0.3,65.6c0,6.4,4.3,13.8,16.4,11.5c94.9-31.7,163.3-121.2,163.3-226.8
	C495.5,129,388.5,22,256.5,22z"/>
</svg>
